<?xml version="1.0" encoding="utf-8"?>
<!-- Generator: Adobe Illustrator 25.0.1, SVG Export Plug-In . SVG Version: 6.00 Build 0)  -->
<svg version="1.1" id="Layer_1" xmlns="http://www.w3.org/2000/svg" xmlns:xlink="http://www.w3.org/1999/xlink" x="0px" y="0px"
	viewBox="0 0 170 149.5" style="enable-background:new 0 0 566.93 149.5;" xml:space="preserve">
<style type="text/css">
	.st0{fill:#FFFFFF;}
</style>
	<g>
<!--	<g>-->
<!--		<path class="st0" d="M267.84,86.63l-10.17,0l-29.05-41.01h-0.09l0,41.01l-10.94,0l0-59.8l10.17,0l29.05,41.09h0.09l0-41.09-->
<!--			l10.94,0L267.84,86.63z"/>-->
<!--		<path class="st0" d="M341.43,56.73c0,18.54-13.58,31.18-31.35,31.18c-17.77,0-31.27-12.64-31.27-31.18-->
<!--			c0-18.54,13.5-31.18,31.27-31.18S341.43,38.2,341.43,56.73z M290.77,56.73c0,11.87,8.12,19.99,19.31,19.99-->
<!--			c11.28,0,19.31-8.12,19.31-19.99c0-11.87-8.03-19.99-19.31-19.99C298.88,36.74,290.77,44.86,290.77,56.73z"/>-->
<!--		<path class="st0" d="M368.29,62.8l-4.1,0l0,23.84l-10.94,0l0-59.8l22.04,0c11.87,0,19.31,7.35,19.31,18.11-->
<!--			c0,8.88-5.21,15.55-14.01,17.34l17.68,24.35l-13.75,0L368.29,62.8z M364.19,53.15l9.4,0c6.32,0,9.31-2.99,9.31-8.03-->
<!--			c0-4.87-2.99-8.2-9.31-8.2l-9.4,0L364.19,53.15z"/>-->
<!--		<path class="st0" d="M457.92,56.73c0,18.62-13.07,29.9-31.1,29.9l-19.14,0l0-59.8l19.14,0C444.85,26.83,457.92,38.11,457.92,56.73-->
<!--			z M418.62,36.91l0,39.64l8.71,0c10.76,0,18.79-6.92,18.79-19.82c0-12.9-8.03-19.82-18.79-19.82L418.62,36.91z"/>-->
<!--		<path class="st0" d="M480.54,86.63l-11.02,0l0-59.8l11.02,0L480.54,86.63z"/>-->
<!--		<path class="st0" d="M492.34,56.73c0-18.88,13.41-31.18,32.29-31.18c9.23,0,15.98,2.82,21.36,6.58l-6.32,9.57-->
<!--			c-3.67-2.56-8.71-4.96-15.12-4.96c-11.62,0-20.25,7.77-20.25,19.99c0,12.22,8.63,19.99,20.25,19.99c6.41,0,11.45-2.39,15.12-4.96-->
<!--			l6.32,9.57c-5.38,3.76-12.13,6.58-21.36,6.58C505.75,87.92,492.34,75.61,492.34,56.73z"/>-->
<!--		<path class="st0" d="M216.22,122.89l1.8-3.7c1.77,1.04,3.86,1.93,5.98,1.93c2.09,0,3.13-0.92,3.13-2.24c0-1.14-0.82-1.9-2.25-2.91-->
<!--			l-3.57-2.56c-2.34-1.61-3.51-3.45-3.51-5.82c0-3.45,2.34-5.63,6.58-5.63c2.21,0,4.43,0.6,6.48,1.55l-1.74,3.7-->
<!--			c-1.68-0.85-3.26-1.36-4.71-1.36c-1.68,0-2.31,0.63-2.31,1.61c0,0.85,0.51,1.42,1.71,2.28l3.83,2.69-->
<!--			c2.47,1.68,3.79,3.45,3.79,6.23c0,4.17-2.91,6.39-7.56,6.39C220.99,125.04,218.31,124.19,216.22,122.89"/>-->
<!--		<path class="st0" d="M253.56,120.77l0,3.79l-13.28,0l0-22.13l13.12,0v3.79l-9.07,0l0,4.43l8.28,0l0,3.73l-8.28,0l0,6.39-->
<!--			L253.56,120.77z"/>-->
<!--		<path class="st0" d="M286.19,124.55h-4.08l-2.14-14.29h-0.06l-4.21,11l-2.94,0l-4.21-11h-0.06l-2.17,14.29l-4.08,0l3.97-22.13-->
<!--			h2.98l4.99,12.52h0.06l5.03-12.52l2.97,0L286.19,124.55z"/>-->
<!--		<path class="st0" d="M299.29,124.57l-4.2,0l0-22.13l4.2,0L299.29,124.57z"/>-->
<!--		<path class="st0" d="M307.48,113.5c0-6.99,4.96-11.54,11.95-11.54c3.42,0,5.91,1.04,7.9,2.44l-2.34,3.54-->
<!--			c-1.36-0.95-3.22-1.83-5.6-1.83c-4.3,0-7.49,2.88-7.49,7.4c0,4.52,3.19,7.4,7.49,7.4c2.37,0,4.24-0.89,5.6-1.83l2.34,3.54-->
<!--			c-1.99,1.39-4.49,2.43-7.9,2.43C312.44,125.04,307.48,120.49,307.48,113.5z"/>-->
<!--		<path class="st0" d="M357.31,113.5c0,6.86-5.03,11.54-11.6,11.54c-6.58,0-11.57-4.68-11.57-11.54c0-6.86,5-11.54,11.57-11.54-->
<!--			C352.29,101.96,357.31,106.64,357.31,113.5z M338.56,113.5c0,4.4,3,7.4,7.15,7.4c4.17,0,7.15-3,7.15-7.4c0-4.39-2.97-7.4-7.15-7.4-->
<!--			C341.57,106.1,338.56,109.1,338.56,113.5z"/>-->
<!--		<path class="st0" d="M384.39,124.56l-3.76,0l-10.75-15.18h-0.03v15.18h-4.05l0-22.13h3.76l10.75,15.21h0.03l0-15.21l4.05,0-->
<!--			L384.39,124.56z"/>-->
<!--		<path class="st0" d="M413,113.43c0,6.89-4.84,11.07-11.51,11.07l-7.08,0l0-22.13l7.08,0C408.16,102.36,413,106.54,413,113.43z-->
<!--			 M398.45,106.09l0,14.67l3.22,0c3.98,0,6.96-2.56,6.96-7.34c0-4.77-2.97-7.34-6.96-7.34L398.45,106.09z"/>-->
<!--		<path class="st0" d="M439.67,115.77c0,5.6-3.32,9.17-9.11,9.17c-5.82,0-9.14-3.57-9.14-9.17v-13.41h4.27l0,13.15-->
<!--			c0,3.19,1.9,5.25,4.87,5.25c2.94,0,4.84-2.05,4.84-5.25v-13.15l4.27,0L439.67,115.77z"/>-->
<!--		<path class="st0" d="M448.07,113.43c0-6.99,4.96-11.54,11.95-11.54c3.42,0,5.91,1.04,7.9,2.44l-2.34,3.54-->
<!--			c-1.36-0.95-3.22-1.83-5.6-1.83c-4.3,0-7.49,2.88-7.49,7.4c0,4.52,3.19,7.4,7.49,7.4c2.37,0,4.24-0.89,5.6-1.83l2.34,3.54-->
<!--			c-1.99,1.39-4.49,2.43-7.9,2.43C453.04,124.97,448.07,120.42,448.07,113.43z"/>-->
<!--		<path class="st0" d="M490.66,106.16l-6.04,0l0,18.34l-4.05,0l0-18.34l-6.04,0l0-3.79l16.13,0V106.16z"/>-->
<!--		<path class="st0" d="M520.05,113.43c0,6.86-5.03,11.54-11.6,11.54c-6.58,0-11.57-4.68-11.57-11.54c0-6.86,5-11.54,11.57-11.54-->
<!--			C515.02,101.89,520.05,106.57,520.05,113.43z M501.3,113.43c0,4.4,3,7.4,7.15,7.4c4.17,0,7.15-3,7.15-7.4-->
<!--			c0-4.39-2.97-7.4-7.15-7.4C504.3,106.03,501.3,109.03,501.3,113.43z"/>-->
<!--		<path class="st0" d="M533.9,115.67h-1.52v8.82l-4.05,0v-22.13l8.16,0c4.4,0,7.15,2.72,7.15,6.7c0,3.29-1.93,5.75-5.19,6.42-->
<!--			l6.55,9.01l-5.09,0L533.9,115.67z M532.38,112.1l3.48,0c2.34,0,3.45-1.11,3.45-2.97c0-1.8-1.11-3.04-3.45-3.04l-3.48,0V112.1z"/>-->
<!--		<g>-->
<!--			<g>-->
<!--				<g>-->
<!--					<g>-->
<!--						<path class="st0" d="M558.26,34.21v3.14h-0.6l0-6.9l3.04,0c1.32,0,2.29,0.58,2.29,1.83c0,0.8-0.37,1.42-1.29,1.64-->
<!--							c0.54,0.14,1.11,0.52,1.11,1.71v0.28c0,0.56,0,1.17,0.08,1.44h-0.62c-0.1-0.3-0.07-0.89-0.07-1.38v-0.23-->
<!--							c0-1.19-0.46-1.53-1.79-1.53L558.26,34.21z M558.26,33.66l2.27,0c1.22,0,1.84-0.43,1.84-1.37c0-0.86-0.62-1.28-1.79-1.28-->
<!--							l-2.32,0V33.66z"/>-->
<!--						<path class="st0" d="M563.13,37.54h-1l-0.04-0.13c-0.09-0.27-0.08-0.72-0.08-1.16l0-0.52c0-1.05-0.34-1.34-1.6-1.34l-1.97,0-->
<!--							v3.14h-0.97l0-7.27l3.23,0c1.55,0,2.48,0.75,2.48,2.01c0,0.79-0.33,1.35-0.96,1.66c0.51,0.31,0.77,0.88,0.77,1.7v0.28-->
<!--							c0,0.54,0,1.14,0.07,1.39L563.13,37.54z M562.41,37.17h0.25c-0.04-0.33-0.04-0.8-0.04-1.25v-0.28c0-1.15-0.55-1.43-0.97-1.53-->
<!--							l-0.74-0.18l0.74-0.18c0.78-0.19,1.15-0.66,1.15-1.46c0-1.48-1.47-1.64-2.1-1.64l-2.86,0v6.53h0.23v-3.14l2.34,0-->
<!--							c1.25,0,1.97,0.28,1.97,1.71l0,0.52C562.38,36.58,562.38,36.93,562.41,37.17z M560.53,33.85l-2.46,0v-3.02l2.51,0-->
<!--							c1.63,0,1.97,0.79,1.97,1.46C562.55,33.32,561.87,33.85,560.53,33.85z M558.44,33.48h2.08c1.46,0,1.65-0.63,1.65-1.19-->
<!--							c0-0.27,0-1.09-1.6-1.09l-2.13,0V33.48z"/>-->
<!--					</g>-->
<!--				</g>-->
<!--				<g>-->
<!--					<g>-->
<!--						<path class="st0" d="M560.2,40.33c-3.61,0-6.54-2.93-6.54-6.54c0-3.61,2.93-6.54,6.54-6.54c3.61,0,6.54,2.93,6.54,6.54-->
<!--							C566.74,37.4,563.81,40.33,560.2,40.33z M560.2,27.85c-3.27,0-5.94,2.66-5.94,5.94c0,3.27,2.66,5.94,5.94,5.94-->
<!--							s5.94-2.66,5.94-5.94C566.14,30.52,563.47,27.85,560.2,27.85z"/>-->
<!--						<path class="st0" d="M560.2,40.52c-3.71,0-6.73-3.02-6.73-6.73s3.02-6.73,6.73-6.73c3.71,0,6.73,3.02,6.73,6.73-->
<!--							S563.91,40.52,560.2,40.52z M560.2,27.44c-3.5,0-6.35,2.85-6.35,6.35c0,3.5,2.85,6.35,6.35,6.35c3.5,0,6.35-2.85,6.35-6.35-->
<!--							C566.56,30.29,563.71,27.44,560.2,27.44z M560.2,39.91c-3.38,0-6.12-2.75-6.12-6.12s2.75-6.12,6.12-6.12-->
<!--							c3.38,0,6.12,2.75,6.12,6.12C566.32,37.17,563.58,39.91,560.2,39.91z M560.2,28.04c-3.17,0-5.75,2.58-5.75,5.75-->
<!--							s2.58,5.75,5.75,5.75s5.75-2.58,5.75-5.75S563.37,28.04,560.2,28.04z"/>-->
<!--					</g>-->
<!--				</g>-->
<!--			</g>-->
<!--		</g>-->
<!--	</g>-->
	<g>
		<path class="st0" d="M125.31,0.76c-0.32,0.15-0.62,0.29-0.91,0.46L91,20.5l35.07,20.35V0.44c-0.16,0.06-0.33,0.12-0.49,0.19
			L125.31,0.76z"/>
			<polygon class="st0" points="45.58,148.69 80.63,128.44 45.55,108.19 		"/>
			<path class="st0" d="M0,29.34v93.51c0,1.86,1.01,3.58,2.65,4.48l36.89,21.55l0-1.6l-0.04-42.43l0.01-2.11l0-5.01l5.05,2.91
			l83.97,48.36c0.11,0.06,0.28,0.13,0.45,0.2l0.26,0.12c0.87,0.34,1.79,0.3,3.85-1.01l14.27-8.12l22.35-13.33
			c0.12-0.1,0.24-0.21,0.36-0.32l-23.29-13.44L0,28.39L0,29.34z"/>
			<polygon class="st0" points="39.51,102.74 39.53,97.74 44.55,100.63 39.51,97.72 		"/>
			<polygon class="st0" points="39.54,148.87 39.53,147.27 39.53,148.87 		"/>
			<path class="st0" d="M78.94,20.49L78.94,20.49L53.71,5.85l-8.19-4.6c-2.75-1.54-4.9-1.64-7.7-0.36c0,0.01-0.1,0.06-0.2,0.11
			c-0.33,0.16-0.66,0.32-0.97,0.52L4.94,19.96l-0.06,0.04c-1.12,0.61-2.1,1.48-2.89,2.54l83.15,48l0.09,0.05l86.42,49.89V28.33
			c0-3.44-1.87-6.61-4.89-8.26L133.93,1.03c-0.57-0.31-1.18-0.57-1.82-0.76v51.06L78.94,20.49z"/>
			<polygon class="st0" points="132.11,51.34 78.94,20.49 78.94,20.49 		"/>
	</g>
</g>
</svg>
